<mxfile host="Electron" agent="Mozilla/5.0 (X11; Linux x86_64) AppleWebKit/537.36 (KHTML, like Gecko) draw.io/24.7.17 Chrome/128.0.6613.36 Electron/32.0.1 Safari/537.36" version="24.7.17">
  <diagram name="Page-1" id="i99-KOvMeySdVOlr5Nxg">
    <mxGraphModel dx="794" dy="1224" grid="1" gridSize="10" guides="1" tooltips="1" connect="1" arrows="1" fold="1" page="1" pageScale="1" pageWidth="1169" pageHeight="827" math="0" shadow="0">
      <root>
        <mxCell id="0" />
        <mxCell id="1" parent="0" />
        <mxCell id="NeNxGj7j5S0PMZiqVFyd-5" style="edgeStyle=orthogonalEdgeStyle;rounded=0;orthogonalLoop=1;jettySize=auto;html=1;entryX=0.5;entryY=0;entryDx=0;entryDy=0;" edge="1" parent="1" source="NeNxGj7j5S0PMZiqVFyd-1" target="NeNxGj7j5S0PMZiqVFyd-3">
          <mxGeometry relative="1" as="geometry" />
        </mxCell>
        <mxCell id="NeNxGj7j5S0PMZiqVFyd-1" value="Create tables for state-value function" style="rounded=1;whiteSpace=wrap;html=1;fillColor=#0050ef;fontColor=#ffffff;strokeColor=#001DBC;" vertex="1" parent="1">
          <mxGeometry x="160" y="240" width="120" height="60" as="geometry" />
        </mxCell>
        <mxCell id="NeNxGj7j5S0PMZiqVFyd-7" style="edgeStyle=orthogonalEdgeStyle;rounded=0;orthogonalLoop=1;jettySize=auto;html=1;" edge="1" parent="1" source="NeNxGj7j5S0PMZiqVFyd-3" target="NeNxGj7j5S0PMZiqVFyd-6">
          <mxGeometry relative="1" as="geometry" />
        </mxCell>
        <mxCell id="NeNxGj7j5S0PMZiqVFyd-3" value="Iterate over each possible position on the maze" style="rounded=1;whiteSpace=wrap;html=1;fillColor=#0050ef;fontColor=#ffffff;strokeColor=#001DBC;" vertex="1" parent="1">
          <mxGeometry x="160" y="340" width="120" height="60" as="geometry" />
        </mxCell>
        <mxCell id="NeNxGj7j5S0PMZiqVFyd-10" style="edgeStyle=orthogonalEdgeStyle;rounded=0;orthogonalLoop=1;jettySize=auto;html=1;entryX=0.5;entryY=0;entryDx=0;entryDy=0;" edge="1" parent="1" source="NeNxGj7j5S0PMZiqVFyd-6" target="NeNxGj7j5S0PMZiqVFyd-9">
          <mxGeometry relative="1" as="geometry" />
        </mxCell>
        <mxCell id="NeNxGj7j5S0PMZiqVFyd-6" value="calculate value of best action for pre- &amp;amp; post-checkpoint" style="rounded=1;whiteSpace=wrap;html=1;fillColor=#0050ef;fontColor=#ffffff;strokeColor=#001DBC;" vertex="1" parent="1">
          <mxGeometry x="160" y="440" width="120" height="60" as="geometry" />
        </mxCell>
        <mxCell id="NeNxGj7j5S0PMZiqVFyd-15" style="edgeStyle=orthogonalEdgeStyle;rounded=0;orthogonalLoop=1;jettySize=auto;html=1;" edge="1" parent="1" source="NeNxGj7j5S0PMZiqVFyd-8" target="NeNxGj7j5S0PMZiqVFyd-14">
          <mxGeometry relative="1" as="geometry" />
        </mxCell>
        <mxCell id="NeNxGj7j5S0PMZiqVFyd-18" style="edgeStyle=orthogonalEdgeStyle;rounded=0;orthogonalLoop=1;jettySize=auto;html=1;entryX=0;entryY=0.5;entryDx=0;entryDy=0;" edge="1" parent="1" source="NeNxGj7j5S0PMZiqVFyd-8" target="NeNxGj7j5S0PMZiqVFyd-17">
          <mxGeometry relative="1" as="geometry" />
        </mxCell>
        <mxCell id="NeNxGj7j5S0PMZiqVFyd-8" value="Is update size &amp;lt; threshold" style="rounded=1;whiteSpace=wrap;html=1;fillColor=#6a00ff;fontColor=#ffffff;strokeColor=#3700CC;" vertex="1" parent="1">
          <mxGeometry x="330" y="630" width="120" height="60" as="geometry" />
        </mxCell>
        <mxCell id="NeNxGj7j5S0PMZiqVFyd-12" style="edgeStyle=orthogonalEdgeStyle;rounded=0;orthogonalLoop=1;jettySize=auto;html=1;entryX=0.5;entryY=0;entryDx=0;entryDy=0;" edge="1" parent="1" source="NeNxGj7j5S0PMZiqVFyd-9" target="NeNxGj7j5S0PMZiqVFyd-11">
          <mxGeometry relative="1" as="geometry" />
        </mxCell>
        <mxCell id="NeNxGj7j5S0PMZiqVFyd-9" value="update value-function for those states" style="rounded=1;whiteSpace=wrap;html=1;fillColor=#0050ef;fontColor=#ffffff;strokeColor=#001DBC;" vertex="1" parent="1">
          <mxGeometry x="160" y="540" width="120" height="60" as="geometry" />
        </mxCell>
        <mxCell id="NeNxGj7j5S0PMZiqVFyd-13" style="edgeStyle=orthogonalEdgeStyle;rounded=0;orthogonalLoop=1;jettySize=auto;html=1;" edge="1" parent="1" source="NeNxGj7j5S0PMZiqVFyd-11" target="NeNxGj7j5S0PMZiqVFyd-8">
          <mxGeometry relative="1" as="geometry">
            <mxPoint x="339.9999999999999" y="660" as="targetPoint" />
          </mxGeometry>
        </mxCell>
        <mxCell id="NeNxGj7j5S0PMZiqVFyd-11" value="save update-size if it is largest" style="rounded=1;whiteSpace=wrap;html=1;fillColor=#0050ef;fontColor=#ffffff;strokeColor=#001DBC;" vertex="1" parent="1">
          <mxGeometry x="160" y="630" width="120" height="60" as="geometry" />
        </mxCell>
        <mxCell id="NeNxGj7j5S0PMZiqVFyd-16" style="edgeStyle=orthogonalEdgeStyle;rounded=0;orthogonalLoop=1;jettySize=auto;html=1;entryX=1;entryY=0.5;entryDx=0;entryDy=0;" edge="1" parent="1" source="NeNxGj7j5S0PMZiqVFyd-14" target="NeNxGj7j5S0PMZiqVFyd-3">
          <mxGeometry relative="1" as="geometry" />
        </mxCell>
        <mxCell id="NeNxGj7j5S0PMZiqVFyd-14" value="yes" style="rounded=1;whiteSpace=wrap;html=1;fillColor=#60a917;fontColor=#ffffff;strokeColor=#2D7600;" vertex="1" parent="1">
          <mxGeometry x="330" y="340" width="120" height="60" as="geometry" />
        </mxCell>
        <mxCell id="NeNxGj7j5S0PMZiqVFyd-20" style="edgeStyle=orthogonalEdgeStyle;rounded=0;orthogonalLoop=1;jettySize=auto;html=1;entryX=0;entryY=0.5;entryDx=0;entryDy=0;" edge="1" parent="1" source="NeNxGj7j5S0PMZiqVFyd-17" target="NeNxGj7j5S0PMZiqVFyd-19">
          <mxGeometry relative="1" as="geometry" />
        </mxCell>
        <mxCell id="NeNxGj7j5S0PMZiqVFyd-17" value="no" style="rounded=1;whiteSpace=wrap;html=1;fillColor=#a20025;fontColor=#ffffff;strokeColor=#6F0000;" vertex="1" parent="1">
          <mxGeometry x="500" y="630" width="120" height="60" as="geometry" />
        </mxCell>
        <mxCell id="NeNxGj7j5S0PMZiqVFyd-19" value="derive best policy" style="rounded=1;whiteSpace=wrap;html=1;fillColor=#0050ef;fontColor=#ffffff;strokeColor=#001DBC;" vertex="1" parent="1">
          <mxGeometry x="670" y="630" width="120" height="60" as="geometry" />
        </mxCell>
      </root>
    </mxGraphModel>
  </diagram>
</mxfile>
